<svg width="215" height="100" viewBox="0 0 215 100" fill="none" xmlns="http://www.w3.org/2000/svg">
<g clip-path="url(#clip0_1_335)">
<path d="M40.5887 85.1543C40.6106 88.5754 40.6326 91.5392 40.6476 94.5029C40.6546 95.9309 40.7036 97.3619 40.6156 98.785C40.5917 99.1846 40.148 99.5587 39.8973 99.9446C39.6595 99.5528 39.2219 99.1611 39.2149 98.7566C39.1539 94.7967 39.1599 90.836 39.1609 86.8761C39.1609 86.5588 39.1859 86.1905 39.3467 85.9408C39.4916 85.7135 39.8403 85.6107 40.5887 85.1543Z" fill="white"/>
<path d="M35.2304 85.6842C35.3303 85.9781 35.4402 86.1661 35.4412 86.3512C35.4582 89.0848 35.4801 91.8184 35.4342 94.552C35.4292 94.8017 34.9646 95.0417 34.7138 95.2904C34.483 95.0191 34.0574 94.7518 34.0524 94.4765C34.0014 91.7439 34.0064 89.0104 34.0434 86.2768C34.0434 86.029 34.3371 85.7156 34.5809 85.5657C34.7268 85.4786 35.0385 85.6421 35.2304 85.6842Z" fill="white"/>
<path d="M29.5354 91.8135C29.2276 91.2199 28.8879 90.8644 28.8809 90.502C28.829 87.7792 28.818 85.0554 28.8659 82.3326C28.8719 81.9986 29.3066 81.6715 29.5423 81.3414C29.7851 81.599 30.2417 81.8547 30.2417 82.1142C30.2647 85.0907 30.2238 88.0672 30.1748 91.0436C30.1698 91.1915 29.939 91.3365 29.5354 91.8135Z" fill="white"/>
<path d="M50.5281 81.3072C50.665 81.7577 50.9118 82.2073 50.9198 82.6607C50.9617 85.1935 50.9757 87.7273 50.9198 90.2581C50.9108 90.6832 50.5141 91.0995 50.2973 91.5196C50.0196 91.0926 49.516 90.6734 49.503 90.2386C49.4221 87.7087 49.4381 85.1749 49.471 82.6421C49.477 82.1906 49.7198 81.743 49.8537 81.2935L50.5281 81.3072Z" fill="white"/>
<path d="M45.6074 85.6352C45.6743 86.0945 45.7732 86.4677 45.7772 86.8418C45.8002 89.2561 45.8442 91.6733 45.7772 94.0896C45.7642 94.5254 45.2487 94.9466 44.9649 95.3736C44.7501 94.9535 44.3605 94.5372 44.3495 94.1111C44.2865 91.6322 44.2945 89.1513 44.3295 86.6675C44.3295 86.3286 44.5633 85.9506 44.7951 85.6763C44.893 85.5539 45.2577 85.644 45.6074 85.6352Z" fill="white"/>
<path d="M56.4399 26.5033C51.2654 20.0871 44.7681 16.7091 36.1735 18.4456C33.1652 19.0519 30.4935 20.3202 28.0806 22.1429C22.6853 26.2232 19.9876 31.7188 19.6499 38.2947C19.4261 42.6492 20.9907 46.5943 23.4106 50.1771C25.3679 53.0732 27.564 55.8146 29.5273 58.7079C30.1488 59.6236 30.8192 59.845 31.8253 59.8293C32.172 59.8293 32.5177 59.8195 32.8634 59.8166C35.2863 59.794 37.7092 59.8166 40.1321 59.8166C42.6809 59.8166 45.2277 59.8293 47.7785 59.8087L48.8705 59.797C49.3341 59.7911 49.9975 59.6814 50.2253 59.3749C52.3535 56.5091 54.4816 53.6374 56.4659 50.6756C59.5372 46.088 61.3357 41.1996 60.2456 35.5415C59.6092 32.23 58.5531 29.1262 56.4399 26.5033ZM56.0093 36.4093C55.9324 37.3622 55.224 38.2055 54.5106 38.1977C53.7043 38.1879 52.9749 37.2251 52.9889 36.1967C52.9949 35.7393 52.9889 35.2819 52.9889 34.5562C52.7411 29.9764 50.3632 26.4269 45.995 24.2604C44.6592 23.5974 43.0626 23.4368 41.5818 23.0607C41.1975 22.9712 40.8082 22.9039 40.4159 22.8589C39.5256 22.7384 39.0021 22.2056 39.101 21.3692C39.2009 20.5523 39.7914 20.1341 40.6996 20.142C45.7952 20.187 49.7997 22.3613 52.854 26.2467C55.0441 29.0312 56.0443 32.2545 56.0243 35.7756C56.0283 35.9891 56.0253 36.2006 56.0093 36.4093Z" fill="white"/>
<path d="M47.8474 62.2309C42.5594 62.2309 37.271 62.2282 31.9822 62.223C31.2449 62.223 30.9301 62.558 30.9212 63.2387C30.9112 64.0849 30.9411 64.9331 30.8952 65.7774C30.8432 66.7499 31.3058 67.0829 32.253 67.0722C34.7708 67.0418 37.2896 67.0614 39.8074 67.0614C42.2533 67.0614 44.6995 67.0614 47.1461 67.0614C48.9964 67.0614 49.1353 66.9262 49.1443 65.1633C49.1443 64.5991 49.1563 64.034 49.1343 63.4708C49.1004 62.6794 48.6947 62.2309 47.8474 62.2309Z" fill="white"/>
<path d="M42.2003 69.3777C41.6458 69.3953 41.0903 69.3777 40.5348 69.3777C37.6143 69.3777 34.6929 69.3983 31.7724 69.3669C31.1479 69.3601 30.8832 69.6989 30.9031 70.5951C30.9211 71.3698 30.9141 72.1465 30.9031 72.9213C30.8972 73.7548 31.1439 74.1083 31.7384 74.0966C31.9562 74.0966 32.173 74.0878 32.3909 74.0848C33.9115 74.0643 35.4322 74.0848 36.9529 74.0848C38.6914 74.0848 40.4289 74.0701 42.1674 74.0927C42.8328 74.1005 43.1595 73.6901 43.1455 72.7077C43.1365 72.0731 43.1315 71.4345 43.1455 70.8047C43.1725 69.8322 42.8757 69.3561 42.2003 69.3777Z" fill="white"/>
<path d="M47.6916 76.4325C47.3699 76.4384 47.0492 76.4443 46.7274 76.4482C44.4784 76.4756 42.2313 76.4482 39.9773 76.4482C37.3586 76.4482 34.7399 76.4482 32.1201 76.4482C31.4407 76.4482 30.6334 76.4276 30.9212 77.2141C31.1609 77.9087 31.4835 78.5732 31.8823 79.1935C33.6598 81.8546 38.5725 84.1857 43.725 82.4208C46.5036 81.4678 48.334 79.8791 49.0614 77.6461C49.3342 76.8067 48.9695 76.4071 47.6916 76.4325Z" fill="white"/>
<path d="M9.50271 39.3408C10.6837 39.33 11.3761 38.7884 11.3701 37.9078C11.3641 37.0616 10.7117 36.5367 9.57165 36.5367C6.99123 36.5229 4.41047 36.5229 1.82938 36.5367C0.915173 36.5367 -0.00602672 37.2771 -3.19339e-05 37.9539C0.00596286 38.6307 0.950143 39.3368 1.86735 39.3456C3.15822 39.3574 4.4481 39.3456 5.73898 39.3456C6.99389 39.3476 8.2478 39.3476 9.50271 39.3408Z" fill="white"/>
<path d="M76.6293 36.5336C75.2995 36.513 73.9677 36.5336 72.6328 36.5336C71.3339 36.5336 70.0431 36.5198 68.7482 36.5336C67.7121 36.5482 67.0497 37.0869 67.0267 37.8891C67.0037 38.6912 67.6851 39.3239 68.6772 39.3328C71.3376 39.3563 73.9986 39.3563 76.6603 39.3328C77.5535 39.3259 78.3868 38.5972 78.3808 37.9067C78.3748 37.2162 77.5575 36.5482 76.6293 36.5336Z" fill="white"/>
<path d="M39.8543 11.0216C40.5487 11.1195 41.2241 10.2517 41.2341 9.32815C41.2491 8.06077 41.2341 6.79339 41.2341 5.52503C41.2341 4.25668 41.2481 2.99028 41.2291 1.7229C41.2121 0.651408 40.6996 0.00890373 39.9043 8.88886e-05C39.1249 -0.00872595 38.5055 0.638675 38.4875 1.67099C38.4555 4.24101 38.4555 6.81102 38.4845 9.37712C38.4935 10.2429 38.9551 10.8874 39.8543 11.0216Z" fill="white"/>
<path d="M53.5045 14.6943C54.2349 15.0313 54.9433 14.9039 55.4099 14.0685C56.389 12.3183 57.4361 10.6043 58.4432 8.86871C58.9328 8.02543 59.3964 7.16745 59.9659 6.14591C59.5463 5.67774 59.2375 5.02544 58.8379 4.96962C58.3633 4.8991 57.574 5.19684 57.3282 5.58372C55.8362 7.93042 54.4187 10.3219 53.0759 12.758C52.7282 13.376 52.6253 14.2889 53.5045 14.6943Z" fill="white"/>
<path d="M21.3074 8.84231C22.3196 10.5798 23.3387 12.3124 24.3448 14.0529C24.7385 14.7385 25.3609 15.0431 26.0563 14.7453C26.461 14.572 26.7018 14.0323 27.0405 13.6278C26.6348 12.8168 26.3411 12.1449 25.9724 11.5103C24.8304 9.52497 23.6814 7.54262 22.4924 5.58376C22.0928 4.92069 21.4823 4.53284 20.694 5.06467C19.9057 5.5965 19.8947 6.33009 20.3103 7.10187C20.628 7.68953 20.9707 8.26445 21.3074 8.84231Z" fill="white"/>
<path d="M14.4074 50.9714C11.9046 52.3161 9.43077 53.7216 7.02087 55.2181C6.67417 55.4336 6.57425 56.2955 6.65319 56.8107C6.70414 57.1437 7.29163 57.3984 7.56839 57.6285C8.09194 57.4689 8.42864 57.4326 8.70041 57.2749C11.0214 55.9694 13.3424 54.6618 15.6374 53.3132C16.5576 52.7735 16.7764 52.0252 16.3168 51.2877C15.8182 50.4885 14.9909 50.6579 14.4074 50.9714Z" fill="white"/>
<path d="M72.2192 54.9204C70.2922 53.7836 68.3542 52.6618 66.4053 51.5551C65.7998 51.2123 65.1454 50.9507 64.396 50.5962C64.0033 50.8998 63.4318 51.1241 63.3909 51.4199C63.3159 51.9478 63.4139 52.6217 63.7156 53.0438C64.0173 53.4659 64.6548 53.651 65.1483 53.936C67.0307 55.0183 68.9001 56.1123 70.7855 57.1858C71.7436 57.7313 72.6558 57.6187 73.0914 56.9399C73.558 56.2142 73.2963 55.5589 72.2192 54.9204Z" fill="white"/>
<path d="M64.4189 25.2037C65.0564 24.8961 65.539 24.6934 65.9916 24.4407C68.1697 23.2272 70.3508 22.0196 72.5049 20.7659C73.1134 20.4123 73.544 19.8697 73.1703 19.0921C72.8197 18.3624 72.2032 18.1557 71.4718 18.4065C70.9349 18.6029 70.4181 18.8485 69.9282 19.14C67.8849 20.2987 65.8177 21.4231 63.8454 22.6905C63.4718 22.9304 63.3459 23.7727 63.3898 24.3134C63.4218 24.6239 64.0333 24.8854 64.4189 25.2037Z" fill="white"/>
<path d="M7.11681 20.6727C9.50773 22.1477 11.9686 23.5131 14.4454 24.8519C15.4396 25.3877 16.4657 24.8216 16.5216 23.4572C16.2379 23.1742 15.8332 22.6012 15.2807 22.2516C14.0198 21.4514 12.701 20.7374 11.3841 20.0331C10.2901 19.4455 9.192 18.8422 8.02702 18.4337C7.66833 18.3074 6.74513 18.7325 6.67819 19.0322C6.56129 19.5415 6.73914 20.4445 7.11681 20.6727Z" fill="white"/>
<path d="M28.776 60.6619L24.6795 54.8999C17.4318 59.465 15.0279 73.5355 19.9037 82.4904C21.4373 79.1828 22.8531 75.7558 24.6126 72.508C25.3579 71.1368 26.8416 70.1496 27.9507 68.9537C28.3034 68.5737 28.8669 67.985 28.767 67.6579L28.776 60.6619Z" fill="white"/>
<path d="M51.6321 60.6619L55.7285 54.8999C62.9762 59.465 65.3801 73.5355 60.5044 82.4904C58.9707 79.1828 57.5549 75.7558 55.7955 72.508C55.0501 71.1368 53.5664 70.1496 52.4574 68.9537C52.1047 68.5737 51.5412 67.985 51.6411 67.6579L51.6321 60.6619Z" fill="white"/>
<path d="M35.4582 62.8538H30.8622V76.9575H35.4582V62.8538Z" fill="white"/>
<path d="M101.545 62.0769C100.356 59.6543 97.8212 58.9589 95.3762 58.9589C92.4825 58.9814 89.2973 60.3048 89.2973 63.5349C89.2973 67.0567 92.2582 67.909 95.4659 68.2904C97.552 68.5147 99.0998 69.1203 99.0998 70.6008C99.0998 72.3056 97.3501 72.9561 95.4883 72.9561C93.5817 72.9561 91.7647 72.1934 91.0694 70.4662L88.6019 71.7448C89.7683 74.616 92.2358 75.603 95.4435 75.603C98.9427 75.603 102.038 74.1001 102.038 70.6008C102.038 66.8548 98.9876 66.0024 95.7126 65.5986C93.8284 65.3743 92.2133 64.993 92.2133 63.6247C92.2133 62.4582 93.2676 61.5385 95.4659 61.5385C97.1707 61.5385 98.6511 62.3909 99.1895 63.2882L101.545 62.0769ZM122.794 74.9973L118.038 69.6363C121.021 69.0306 122.008 66.8548 122.008 64.7014C122.008 61.9872 120.057 59.5197 116.356 59.4973C113.866 59.4973 111.376 59.4749 108.886 59.4749V75.1992H111.847V69.9503H114.696L119.272 75.1992H122.794V74.9973ZM116.356 62.2564C118.218 62.2564 119.048 63.5125 119.048 64.7687C119.048 66.0248 118.24 67.281 116.356 67.281H111.847V62.2564H116.356ZM142.218 75.2217H145.179V59.5197H141.792L136.879 66.2716L131.967 59.5197H128.557V75.2217H131.518V63.8041L136.52 70.6457H137.104L142.218 63.8265V75.2217ZM155.461 75.1992V59.4973H152.522V75.1992H155.461ZM174.819 62.0769C173.63 59.6543 171.095 58.9589 168.65 58.9589C165.757 58.9814 162.571 60.3048 162.571 63.5349C162.571 67.0567 165.532 67.909 168.74 68.2904C170.826 68.5147 172.374 69.1203 172.374 70.6008C172.374 72.3056 170.624 72.9561 168.762 72.9561C166.856 72.9561 165.039 72.1934 164.344 70.4662L161.876 71.7448C163.042 74.616 165.51 75.603 168.718 75.603C172.217 75.603 175.312 74.1001 175.312 70.6008C175.312 66.8548 172.262 66.0024 168.987 65.5986C167.103 65.3743 165.488 64.993 165.488 63.6247C165.488 62.4582 166.542 61.5385 168.74 61.5385C170.445 61.5385 171.925 62.3909 172.464 63.2882L174.819 62.0769ZM186.198 75.1992H189.159V62.1891H194.139V59.4973C189.585 59.4973 185.749 59.4973 181.218 59.4973V62.1891H186.198V75.1992Z" fill="white"/>
<path d="M105.53 49.7992H93.74V45.0592H105.11V41.3692H93.74V36.5392H105.53V32.6992H89.81C89.81 39.6892 89.81 46.7092 89.81 53.6992H105.53V49.7992ZM108.171 45.5992H119.241V42.2392H108.171V45.5992ZM138.141 48.3292C136.761 49.7092 134.691 50.4592 132.861 50.4592C127.671 50.4592 125.661 46.8292 125.631 43.3492C125.601 39.8392 127.791 36.0592 132.861 36.0592C134.691 36.0592 136.551 36.6892 137.931 38.0392L140.571 35.4892C138.411 33.3592 135.711 32.2792 132.861 32.2792C125.271 32.2792 121.701 37.8592 121.731 43.3492C121.761 48.8092 125.061 54.1792 132.861 54.1792C135.891 54.1792 138.681 53.1892 140.841 51.0592L138.141 48.3292ZM158.733 49.7992H146.943V45.0592H158.313V41.3692H146.943V36.5392H158.733V32.6992H143.013C143.013 39.6892 143.013 46.7092 143.013 53.6992H158.733V49.7992ZM161.794 32.6992V53.6992H176.554V50.0392H165.754V32.6992H161.794ZM179.343 32.6992V53.6992H194.103V50.0392H183.303V32.6992H179.343Z" fill="white"/>
</g>
<defs>
<clipPath id="clip0_1_335">
<rect width="214.19" height="99.9447" fill="white"/>
</clipPath>
</defs>
</svg>
